<svg width="278" height="21" viewBox="0 0 278 21" fill="none" xmlns="http://www.w3.org/2000/svg">
<path d="M20.5527 20H16.998V15.1875H4.50195V20H0.947266V10.1973C0.947266 8.76628 1.19336 7.44922 1.68555 6.24609C2.17773 5.04297 2.86133 4.00846 3.73633 3.14258C4.61133 2.27669 5.64583 1.60221 6.83984 1.11914C8.03385 0.636068 9.33724 0.394531 10.75 0.394531H18.7617C19.0078 0.394531 19.2402 0.440104 19.459 0.53125C19.6777 0.622396 19.8691 0.75 20.0332 0.914062C20.1973 1.07812 20.3249 1.26953 20.416 1.48828C20.5072 1.70703 20.5527 1.93945 20.5527 2.18555V20ZM4.50195 11.6328H16.998V3.94922H10.75C10.6406 3.94922 10.4082 3.96745 10.0527 4.00391C9.70638 4.03125 9.30078 4.10872 8.83594 4.23633C8.38021 4.36393 7.89714 4.5599 7.38672 4.82422C6.8763 5.08854 6.4069 5.45312 5.97852 5.91797C5.55013 6.38281 5.19466 6.96615 4.91211 7.66797C4.63867 8.36068 4.50195 9.20378 4.50195 10.1973V11.6328ZM44.2871 6.98438C44.2871 7.79557 44.1868 8.52018 43.9863 9.1582C43.7858 9.79622 43.5124 10.3613 43.166 10.8535C42.8288 11.3366 42.4368 11.7513 41.9902 12.0977C41.5436 12.444 41.0742 12.7311 40.582 12.959C40.099 13.1777 39.6068 13.3372 39.1055 13.4375C38.6133 13.5378 38.1484 13.5879 37.7109 13.5879L45.1348 20H39.6387L32.2285 13.5879H29.6719V10.0332H37.7109C38.1576 9.99674 38.5632 9.9056 38.9277 9.75977C39.3014 9.60482 39.6204 9.39974 39.8848 9.14453C40.1582 8.88932 40.3678 8.58398 40.5137 8.22852C40.6595 7.86393 40.7324 7.44922 40.7324 6.98438V4.74219C40.7324 4.54167 40.7051 4.39128 40.6504 4.29102C40.6048 4.18164 40.541 4.10417 40.459 4.05859C40.3861 4.00391 40.304 3.97201 40.2129 3.96289C40.1309 3.95378 40.0534 3.94922 39.9805 3.94922H28.25V20H24.6953V2.18555C24.6953 1.93945 24.7409 1.70703 24.832 1.48828C24.9232 1.26953 25.0462 1.07812 25.2012 0.914062C25.3652 0.75 25.5566 0.622396 25.7754 0.53125C25.9941 0.440104 26.2311 0.394531 26.4863 0.394531H39.9805C40.7734 0.394531 41.4434 0.540365 41.9902 0.832031C42.5371 1.11458 42.9792 1.47461 43.3164 1.91211C43.6628 2.34049 43.9089 2.80534 44.0547 3.30664C44.2096 3.80794 44.2871 4.27734 44.2871 4.71484V6.98438ZM65.4102 3.94922H57.5762V20H54.0215V3.94922H46.1738V0.394531H65.4102V3.94922ZM96.1855 18.209C96.1855 18.4642 96.14 18.7012 96.0488 18.9199C95.9577 19.1387 95.8301 19.3301 95.666 19.4941C95.5111 19.6491 95.3242 19.7721 95.1055 19.8633C94.8867 19.9544 94.6497 20 94.3945 20H81.5703C81.2422 20 80.8867 19.9635 80.5039 19.8906C80.1302 19.8086 79.7565 19.6855 79.3828 19.5215C79.0182 19.3574 78.6673 19.1478 78.3301 18.8926C77.9928 18.6283 77.6921 18.3138 77.4277 17.9492C77.1725 17.5755 76.9674 17.1471 76.8125 16.6641C76.6576 16.1719 76.5801 15.6204 76.5801 15.0098V5.38477C76.5801 5.05664 76.6165 4.70573 76.6895 4.33203C76.7715 3.94922 76.8945 3.57552 77.0586 3.21094C77.2227 2.83724 77.4368 2.48177 77.7012 2.14453C77.9655 1.80729 78.2799 1.51107 78.6445 1.25586C79.0182 0.991536 79.4466 0.781901 79.9297 0.626953C80.4128 0.472005 80.9596 0.394531 81.5703 0.394531H96.0215V3.94922H81.5703C81.1055 3.94922 80.75 4.07227 80.5039 4.31836C80.2578 4.56445 80.1348 4.92904 80.1348 5.41211V15.0098C80.1348 15.4655 80.2578 15.821 80.5039 16.0762C80.7591 16.3223 81.1146 16.4453 81.5703 16.4453H92.6309V11.9883H83.1699V8.40625H94.3945C94.6497 8.40625 94.8867 8.45638 95.1055 8.55664C95.3242 8.64779 95.5111 8.77539 95.666 8.93945C95.8301 9.10352 95.9577 9.29492 96.0488 9.51367C96.14 9.72331 96.1855 9.95117 96.1855 10.1973V18.209ZM116.01 11.9883H104.785V8.40625H116.01V11.9883ZM117.609 20H104.785C104.293 20 103.755 19.9134 103.172 19.7402C102.589 19.5671 102.046 19.2845 101.545 18.8926C101.053 18.4915 100.638 17.9766 100.301 17.3477C99.9727 16.7096 99.8086 15.9303 99.8086 15.0098V2.18555C99.8086 1.93945 99.8542 1.70703 99.9453 1.48828C100.036 1.26953 100.16 1.07812 100.314 0.914062C100.479 0.75 100.67 0.622396 100.889 0.53125C101.107 0.440104 101.344 0.394531 101.6 0.394531H117.609V3.94922H103.363V15.0098C103.363 15.4746 103.486 15.8301 103.732 16.0762C103.979 16.3223 104.339 16.4453 104.812 16.4453H117.609V20ZM140.646 18.4824C140.646 18.7376 140.596 18.9746 140.496 19.1934C140.405 19.4121 140.277 19.6035 140.113 19.7676C139.958 19.9225 139.771 20.0456 139.553 20.1367C139.334 20.2279 139.102 20.2734 138.855 20.2734C138.637 20.2734 138.413 20.2324 138.186 20.1504C137.967 20.0684 137.771 19.9362 137.598 19.7539L124.609 6.19141V20H121.055V1.91211C121.055 1.54753 121.155 1.2194 121.355 0.927734C121.565 0.626953 121.829 0.403646 122.148 0.257812C122.486 0.121094 122.832 0.0891927 123.188 0.162109C123.543 0.225911 123.848 0.389974 124.104 0.654297L137.092 14.2031V0.394531H140.646V18.4824ZM160.908 11.9883H149.684V8.40625H160.908V11.9883ZM162.508 20H149.684C149.191 20 148.654 19.9134 148.07 19.7402C147.487 19.5671 146.945 19.2845 146.443 18.8926C145.951 18.4915 145.536 17.9766 145.199 17.3477C144.871 16.7096 144.707 15.9303 144.707 15.0098V2.18555C144.707 1.93945 144.753 1.70703 144.844 1.48828C144.935 1.26953 145.058 1.07812 145.213 0.914062C145.377 0.75 145.568 0.622396 145.787 0.53125C146.006 0.440104 146.243 0.394531 146.498 0.394531H162.508V3.94922H148.262V15.0098C148.262 15.4746 148.385 15.8301 148.631 16.0762C148.877 16.3223 149.237 16.4453 149.711 16.4453H162.508V20ZM185.545 6.98438C185.545 7.79557 185.445 8.52018 185.244 9.1582C185.044 9.79622 184.77 10.3613 184.424 10.8535C184.087 11.3366 183.695 11.7513 183.248 12.0977C182.801 12.444 182.332 12.7311 181.84 12.959C181.357 13.1777 180.865 13.3372 180.363 13.4375C179.871 13.5378 179.406 13.5879 178.969 13.5879L186.393 20H180.896L173.486 13.5879H170.93V10.0332H178.969C179.415 9.99674 179.821 9.9056 180.186 9.75977C180.559 9.60482 180.878 9.39974 181.143 9.14453C181.416 8.88932 181.626 8.58398 181.771 8.22852C181.917 7.86393 181.99 7.44922 181.99 6.98438V4.74219C181.99 4.54167 181.963 4.39128 181.908 4.29102C181.863 4.18164 181.799 4.10417 181.717 4.05859C181.644 4.00391 181.562 3.97201 181.471 3.96289C181.389 3.95378 181.311 3.94922 181.238 3.94922H169.508V20H165.953V2.18555C165.953 1.93945 165.999 1.70703 166.09 1.48828C166.181 1.26953 166.304 1.07812 166.459 0.914062C166.623 0.75 166.814 0.622396 167.033 0.53125C167.252 0.440104 167.489 0.394531 167.744 0.394531H181.238C182.031 0.394531 182.701 0.540365 183.248 0.832031C183.795 1.11458 184.237 1.47461 184.574 1.91211C184.921 2.34049 185.167 2.80534 185.312 3.30664C185.467 3.80794 185.545 4.27734 185.545 4.71484V6.98438ZM208.35 20H204.795V15.1875H192.299V20H188.744V10.1973C188.744 8.76628 188.99 7.44922 189.482 6.24609C189.975 5.04297 190.658 4.00846 191.533 3.14258C192.408 2.27669 193.443 1.60221 194.637 1.11914C195.831 0.636068 197.134 0.394531 198.547 0.394531H206.559C206.805 0.394531 207.037 0.440104 207.256 0.53125C207.475 0.622396 207.666 0.75 207.83 0.914062C207.994 1.07812 208.122 1.26953 208.213 1.48828C208.304 1.70703 208.35 1.93945 208.35 2.18555V20ZM192.299 11.6328H204.795V3.94922H198.547C198.438 3.94922 198.205 3.96745 197.85 4.00391C197.503 4.03125 197.098 4.10872 196.633 4.23633C196.177 4.36393 195.694 4.5599 195.184 4.82422C194.673 5.08854 194.204 5.45312 193.775 5.91797C193.347 6.38281 192.992 6.96615 192.709 7.66797C192.436 8.36068 192.299 9.20378 192.299 10.1973V11.6328ZM230.211 3.94922H222.377V20H218.822V3.94922H210.975V0.394531H230.211V3.94922ZM253.139 12.0703C253.139 13.2643 252.934 14.3626 252.523 15.3652C252.113 16.3678 251.544 17.2337 250.814 17.9629C250.085 18.6921 249.219 19.2617 248.217 19.6719C247.223 20.0729 246.139 20.2734 244.963 20.2734H240.15C238.975 20.2734 237.885 20.0729 236.883 19.6719C235.88 19.2617 235.014 18.6921 234.285 17.9629C233.556 17.2337 232.982 16.3678 232.562 15.3652C232.152 14.3626 231.947 13.2643 231.947 12.0703V8.32422C231.947 7.13932 232.152 6.04557 232.562 5.04297C232.982 4.03125 233.556 3.16536 234.285 2.44531C235.014 1.71615 235.88 1.14648 236.883 0.736328C237.885 0.326172 238.975 0.121094 240.15 0.121094H244.963C246.139 0.121094 247.223 0.326172 248.217 0.736328C249.219 1.14648 250.085 1.71615 250.814 2.44531C251.544 3.16536 252.113 4.03125 252.523 5.04297C252.934 6.04557 253.139 7.13932 253.139 8.32422V12.0703ZM249.584 8.32422C249.584 7.6224 249.47 6.98893 249.242 6.42383C249.023 5.84961 248.709 5.36198 248.299 4.96094C247.898 4.55078 247.41 4.23633 246.836 4.01758C246.271 3.78971 245.646 3.67578 244.963 3.67578H240.15C239.458 3.67578 238.824 3.78971 238.25 4.01758C237.685 4.23633 237.197 4.55078 236.787 4.96094C236.377 5.36198 236.058 5.84961 235.83 6.42383C235.611 6.98893 235.502 7.6224 235.502 8.32422V12.0703C235.502 12.7721 235.611 13.4102 235.83 13.9844C236.058 14.5495 236.377 15.0371 236.787 15.4473C237.197 15.8483 237.685 16.1628 238.25 16.3906C238.824 16.6094 239.458 16.7188 240.15 16.7188H244.936C245.628 16.7188 246.257 16.6094 246.822 16.3906C247.396 16.1628 247.889 15.8483 248.299 15.4473C248.709 15.0371 249.023 14.5495 249.242 13.9844C249.47 13.4102 249.584 12.7721 249.584 12.0703V8.32422ZM276.244 6.98438C276.244 7.79557 276.144 8.52018 275.943 9.1582C275.743 9.79622 275.469 10.3613 275.123 10.8535C274.786 11.3366 274.394 11.7513 273.947 12.0977C273.501 12.444 273.031 12.7311 272.539 12.959C272.056 13.1777 271.564 13.3372 271.062 13.4375C270.57 13.5378 270.105 13.5879 269.668 13.5879L277.092 20H271.596L264.186 13.5879H261.629V10.0332H269.668C270.115 9.99674 270.52 9.9056 270.885 9.75977C271.258 9.60482 271.577 9.39974 271.842 9.14453C272.115 8.88932 272.325 8.58398 272.471 8.22852C272.617 7.86393 272.689 7.44922 272.689 6.98438V4.74219C272.689 4.54167 272.662 4.39128 272.607 4.29102C272.562 4.18164 272.498 4.10417 272.416 4.05859C272.343 4.00391 272.261 3.97201 272.17 3.96289C272.088 3.95378 272.01 3.94922 271.938 3.94922H260.207V20H256.652V2.18555C256.652 1.93945 256.698 1.70703 256.789 1.48828C256.88 1.26953 257.003 1.07812 257.158 0.914062C257.322 0.75 257.514 0.622396 257.732 0.53125C257.951 0.440104 258.188 0.394531 258.443 0.394531H271.938C272.73 0.394531 273.4 0.540365 273.947 0.832031C274.494 1.11458 274.936 1.47461 275.273 1.91211C275.62 2.34049 275.866 2.80534 276.012 3.30664C276.167 3.80794 276.244 4.27734 276.244 4.71484V6.98438Z" fill="url(#paint0_linear_0_81)"/>
<defs>
<linearGradient id="paint0_linear_0_81" x1="-1" y1="10" x2="278" y2="10" gradientUnits="userSpaceOnUse">
<stop stop-color="#E67050"/>
<stop offset="1" stop-color="#DB2268"/>
</linearGradient>
</defs>
</svg>
